[Header]
FileType HTR
DataType HTRS
FileVersion 1
NumSegments 22
NumFrames 8
DataFrameRate 24
EulerRotationOrder ZYX
CalibrationUnits mm
RotationUnits Degrees
GlobalAxisofGravity Y
BoneLengthAxis Y
ScaleFactor 1.0
[SegmentNames&Hierarchy]
reference	GLOBAL
Hips	reference
Spine	Hips
Spine1	Spine
Neck	Spine1
Head	Neck
LeftShoulder	Spine1
LeftArm	LeftShoulder
LeftForeArm	LeftArm
LeftHand	LeftForeArm
RightShoulder	Spine1
RightArm	RightShoulder
RightForeArm	RightArm
RightHand	RightForeArm
LeftUpLeg	Hips
LeftLeg	LeftUpLeg
LeftFoot	LeftLeg
LeftToeBase	LeftFoot
RightUpLeg	Hips
RightLeg	RightUpLeg
RightFoot	RightLeg
RightToeBase	RightFoot
[BasePosition]
reference	0	0	0	0	0	0	1
Hips	0	0	0	0	0	0	1
Spine	0	0	0	0	-0	90	1
Spine1	0	0	0	0	0	0	1
Neck	0	0	0	-7.352430803	-7.352430803	90	1
Head	0	0	0	0	-0	90	1
LeftShoulder	0	0	0	0	0	0	1
LeftArm	0	0	0	0	0	0	1
LeftForeArm	0	0	0	0	0	0	1
LeftHand	0	0	0	0	0	0	1
RightShoulder	0	0	0	0	-0	180	1
RightArm	0	0	0	0	-0	180	1
RightForeArm	0	0	0	0	-0	180	1
RightHand	0	0	0	0	-0	180	1
LeftUpLeg	0	0	0	0	-0	-90	1
LeftLeg	0	0	0	0	-0	-90	1
LeftFoot	0	0	0	66.57150701	-66.57150701	-90	1
LeftToeBase	0	0	0	0	-90	0	1
RightUpLeg	0	0	0	0	-0	-90	1
RightLeg	0	0	0	0	-0	-90	1
RightFoot	0	0	0	66.57150701	-66.57150701	-90	1
RightToeBase	0	0	0	0	-90	0	1
[reference]
10	0	0	0	0	-0	0	1.0
11	0	0	0	0	-0	0	1.0
12	0	0	0	0	-0	0	1.0
13	0	0	0	0	-0	0	1.0
14	0	0	0	0	-0	0	1.0
15	0	0	0	0	-0	0	1.0
16	0	0	0	0	-0	0	1.0
17	0	0	0	0	-0	0	1.0
[Hips]
10	2.061269999	8.694310188	0.9665100574	13.62825966	-92.45307922	-8.179335594	1.0
11	2.061269999	8.694310188	0.9665100574	13.77110386	-92.48408508	-8.172010422	1.0
12	2.061269999	8.694310188	0.9665100574	8.062922478	-92.80844116	-2.538532495	1.0
13	2.061269999	8.694310188	0.9665100574	3.055801392	-93.47258759	2.306060791	1.0
14	2.061269999	8.694310188	0.9665100574	0.5513660908	-94.10923767	4.569029808	1.0
15	2.061269999	8.694310188	0.9665100574	1.653206706	-94.49025726	3.397803545	1.0
16	2.061269999	8.694310188	0.9716027975	3.278636932	-94.43254089	1.713382721	1.0
17	2.061269999	8.694310188	0.9762500525	3.564498901	-94.12210846	1.499755383	1.0
[Spine]
10	0	0.7478299737	0	-11.85996056	-1.689620376	-89.74539185	1.0
11	0	0.7478299737	0	-11.72302818	-1.598544121	-89.65844727	1.0
12	0	0.7478299737	0	-11.5067625	-1.317175746	-89.33721161	1.0
13	0	0.7478299737	0	-11.33816242	-0.9139562845	-89.05714417	1.0
14	0	0.7478299737	0	-11.22875786	-0.6082262397	-88.89300537	1.0
15	0	0.7478299737	0	-11.31861687	-0.5451569557	-89.01868439	1.0
16	0	0.7478299737	0	-11.28237915	-0.7782908678	-89.09441376	1.0
17	0	0.7478299737	0	-11.25835514	-1.069409847	-88.94648743	1.0
[Spine1]
10	0	2.049309969	0	7.875397682	-0.4388037324	-1.916840553	1.0
11	0	2.049309969	0	7.831973553	-0.4105410576	-1.952829599	1.0
12	0	2.049309969	0	7.876878262	-0.324623704	-1.970793486	1.0
13	0	2.049309969	0	7.988918781	-0.2037383467	-1.885104299	1.0
14	0	2.049309969	0	8.171562195	-0.1087412536	-1.770050049	1.0
15	0	2.049309969	0	8.226624489	-0.09442035109	-1.611402154	1.0
16	0	2.049309969	0	8.151041985	-0.17218557	-1.604941845	1.0
17	0	2.049309969	0	7.930630207	-0.2734223604	-1.69539547	1.0
[Neck]
10	0	2.231709957	0	-1.0269593	6.964381695	-85.58537292	1.0
11	0	2.231709957	0	-1.161073565	7.046434402	-85.73361206	1.0
12	0	2.231709957	0	-1.267608762	7.232056141	-85.7766571	1.0
13	0	2.231709957	0	-1.14781785	7.510220051	-85.77373505	1.0
14	0	2.231709957	0	-0.933583796	7.800871849	-85.47853088	1.0
15	0	2.231709957	0	-0.6875628233	8.016495705	-85.53517151	1.0
16	0	2.231709957	0	-0.4437048435	8.145215034	-85.53689575	1.0
17	0	2.231709957	0	-0.4915872812	8.212348938	-85.86638641	1.0
[Head]
10	0	1.413589954	0.1823999882	-9.337053299	-0.06927344203	-91.68066406	1.0
11	0	1.413589954	0.1823999882	-9.670763016	-0.003502728418	-91.7064209	1.0
12	0	1.413589954	0.1823999882	-9.82231617	0.1849547029	-91.90739441	1.0
13	0	1.413589954	0.1823999882	-9.919028282	0.4800064266	-92.15859222	1.0
14	0	1.413589954	0.1823999882	-9.947006226	0.8270573616	-92.85531616	1.0
15	0	1.413589954	0.1823999882	-9.965794563	1.048945427	-92.80889893	1.0
16	0	1.413589954	0.1823999882	-9.980219841	1.188692331	-92.82871246	1.0
17	0	1.413589954	0.1823999882	-10.0132494	1.213434815	-92.32450104	1.0
[LeftShoulder]
10	0.3649300039	1.825889945	-0.04271000251	-11.42884541	-8.784822464	3.639495134	1.0
11	0.3649300039	1.825889945	-0.04271000251	-11.42703724	-8.875588417	3.556643724	1.0
12	0.3649300039	1.825889945	-0.04271000251	-11.40271473	-8.85587883	3.488938808	1.0
13	0.3649300039	1.825889945	-0.04271000251	-11.48200226	-8.819677353	3.492111444	1.0
14	0.3649300039	1.825889945	-0.04271000251	-11.59482193	-8.823474884	3.460290909	1.0
15	0.3649300039	1.825889945	-0.04271000251	-11.58275414	-8.876208305	3.450965166	1.0
16	0.3649300039	1.825889945	-0.04271000251	-11.53978539	-8.987192154	3.449043751	1.0
17	0.3649300039	1.825889945	-0.04271000251	-11.55668926	-9.040875435	3.40730238	1.0
[LeftArm]
10	1.24003005	0	0	37.55407715	6.656378746	-80.51325226	1.0
11	1.24003005	0	0	37.65313339	6.486574173	-80.29633331	1.0
12	1.24003005	0	0	38.03369141	6.321225643	-80.23581696	1.0
13	1.24003005	0	0	38.18828201	6.386664867	-80.38558197	1.0
14	1.24003005	0	0	38.30990601	6.543410301	-80.53279877	1.0
15	1.24003005	0	0	38.3135376	6.659100533	-80.7196579	1.0
16	1.24003005	0	0	38.56876373	6.814725876	-80.90392303	1.0
17	1.24003005	0	0	38.71366501	6.930853844	-80.95251465	1.0
[LeftForeArm]
10	2.847419977	0	0	-11.07432556	-12.60037041	-3.916559219	1.0
11	2.847419977	0	0	-11.12698746	-12.80579281	-3.793374777	1.0
12	2.847419977	0	0	-11.19377613	-12.98288536	-3.621192455	1.0
13	2.847419977	0	0	-11.26624012	-13.13253593	-3.532778978	1.0
14	2.847419977	0	0	-11.36129189	-13.161973	-3.568759918	1.0
15	2.847419977	0	0	-11.44172573	-12.99442959	-3.737537146	1.0
16	2.847419977	0	0	-11.40091991	-12.83041573	-3.891774654	1.0
17	2.847419977	0	0	-11.4250946	-12.66408253	-4.106960773	1.0
[LeftHand]
10	2.258270025	0	0	-11.41358948	-4.198544502	-2.562811375	1.0
11	2.258270025	0	0	-11.45262337	-4.30931282	-2.680010796	1.0
12	2.258270025	0	0	-11.50662327	-4.420992374	-2.589007854	1.0
13	2.258270025	0	0	-11.57685375	-4.418022633	-2.508426666	1.0
14	2.258270025	0	0	-11.67324257	-4.486605644	-2.565476894	1.0
15	2.258270025	0	0	-11.76028442	-4.651945591	-2.65355444	1.0
16	2.258270025	0	0	-11.73777676	-4.429798126	-2.624346972	1.0
17	2.258270025	0	0	-11.76387024	-4.581227779	-2.944812059	1.0
[RightShoulder]
10	-0.3646599948	1.825889945	-0.04271000251	-8.727540016	6.898435116	179.2159119	1.0
11	-0.3646599948	1.825889945	-0.04271000251	-8.715515137	7.02977562	179.223175	1.0
12	-0.3646599948	1.825889945	-0.04271000251	-8.824910164	7.247034073	179.2372437	1.0
13	-0.3646599948	1.825889945	-0.04271000251	-8.899924278	7.424392223	179.253479	1.0
14	-0.3646599948	1.825889945	-0.04271000251	-8.997800827	7.438084126	179.3018188	1.0
15	-0.3646599948	1.825889945	-0.04271000251	-9.028798103	7.445631981	179.3157043	1.0
16	-0.3646599948	1.825889945	-0.04271000251	-8.966673851	7.461992741	179.3154297	1.0
17	-0.3646599948	1.825889945	-0.04271000251	-8.920349121	7.404271603	179.2663269	1.0
[RightArm]
10	-1.24003005	0	0	45.43082428	-4.438474178	-98.48806763	1.0
11	-1.24003005	0	0	46.87784576	-4.44767952	-98.38314819	1.0
12	-1.24003005	0	0	47.39041519	-4.407532692	-98.43974304	1.0
13	-1.24003005	0	0	47.95846558	-4.291179657	-98.50924683	1.0
14	-1.24003005	0	0	48.28825378	-4.176715851	-98.48858643	1.0
15	-1.24003005	0	0	48.63124084	-4.156624317	-98.3037262	1.0
16	-1.24003005	0	0	48.53754425	-4.268199444	-98.12486267	1.0
17	-1.24003005	0	0	48.32894516	-4.504021168	-97.96390533	1.0
[RightForeArm]
10	-2.847419977	0	0	-0.1654038429	13.53355598	177.8652496	1.0
11	-2.847419977	0	0	-1.159256458	13.62656021	177.0326691	1.0
12	-2.847419977	0	0	-1.10854888	13.74405956	177.0289459	1.0
13	-2.847419977	0	0	-0.9116371274	13.70667934	177.144455	1.0
14	-2.847419977	0	0	-0.729514122	13.56113625	177.2279358	1.0
15	-2.847419977	0	0	-0.9206808805	13.35894966	177.1653137	1.0
16	-2.847419977	0	0	-1.120589852	13.3957901	177.1089783	1.0
17	-2.847419977	0	0	-1.581160188	13.71359825	177.0092163	1.0
[RightHand]
10	-2.258270025	0	0	-0.1479603052	6.427340031	175.8018799	1.0
11	-2.258270025	0	0	-1.040924549	6.565429211	175.8872986	1.0
12	-2.258270025	0	0	-0.9855027795	6.590594292	175.9238739	1.0
13	-2.258270025	0	0	-0.7963989973	6.593588829	176.0460815	1.0
14	-2.258270025	0	0	-0.6284035444	6.478404999	175.9694824	1.0
15	-2.258270025	0	0	-0.8163958788	6.433987617	175.9536896	1.0
16	-2.258270025	0	0	-1.009658813	6.452157497	175.9491425	1.0
17	-2.258270025	0	0	-1.450216651	6.781610966	176.1447754	1.0
[LeftUpLeg]
10	0.9119900465	0	0	-0.8697593212	-5.37268734	89.8888092	1.0
11	0.9119900465	0	0	-1.772081256	-5.150285244	90.15707397	1.0
12	0.9119900465	0	0	-2.261265039	-4.112509251	90.37008667	1.0
13	0.9119900465	0	0	-2.163071156	-3.648912191	90.43823242	1.0
14	0.9119900465	0	0	-1.900256753	-3.521704197	90.40870667	1.0
15	0.9119900465	0	0	-1.696705103	-3.070647478	90.36260986	1.0
16	0.9119900465	0	0	-1.378620625	-2.555557013	90.17124939	1.0
17	0.9119900465	0	0	-1.267622709	-2.517014503	90.15237427	1.0
[LeftLeg]
10	0	-4.371409893	0	4.8340168	-7.568568707	87.59403229	1.0
11	0	-4.371409893	0	6.47439003	-7.474642277	86.95133972	1.0
12	0	-4.371409893	0	7.856387138	-7.546772957	86.56400299	1.0
13	0	-4.371409893	0	8.115999222	-6.552197933	86.53829956	1.0
14	0	-4.371409893	0	8.350408554	-6.58332777	86.63134003	1.0
15	0	-4.371409893	0	8.247141838	-6.236412525	86.65585327	1.0
16	0	-4.371409893	0	7.88937521	-6.388802528	86.77188873	1.0
17	0	-4.371409893	0	7.312054634	-6.277453899	86.68453979	1.0
[LeftFoot]
10	0	-3.918009996	0	-90.4752121	108.5795898	-41.39488983	1.0
11	0	-3.918009996	0	-89.20118713	107.7887726	-39.25644684	1.0
12	0	-3.918009996	0	-87.91447449	108.4964523	-37.10438538	1.0
13	0	-3.918009996	0	-90.06063843	110.1964264	-39.26527405	1.0
14	0	-3.918009996	0	-90.63507843	110.8965073	-39.7732048	1.0
15	0	-3.918009996	0	-92.20591736	110.2754593	-41.79592896	1.0
16	0	-3.918009996	0	-93.38466644	109.6864624	-43.49290848	1.0
17	0	-3.918009996	0	-93.24039459	109.5009232	-43.35792542	1.0
[LeftToeBase]
10	0	-0.5927900076	1.367989898	0	0	0	1.0
11	0	-0.5927900076	1.367989898	0	0	0	1.0
12	0	-0.5927900076	1.367989898	0	0	0	1.0
13	0	-0.5927900076	1.367989898	0	0	0	1.0
14	0	-0.5927900076	1.367989898	0	0	0	1.0
15	0	-0.5927900076	1.367989898	0	0	0	1.0
16	0	-0.5927900076	1.367989898	0	0	0	1.0
17	0	-0.5927900076	1.367989898	0	0	0	1.0
[RightUpLeg]
10	-0.9119900465	0	0	1.44786489	-6.422212601	92.62065887	1.0
11	-0.9119900465	0	0	1.041985989	-6.737585545	92.51048279	1.0
12	-0.9119900465	0	0	0.9695730805	-6.832566261	92.67840576	1.0
13	-0.9119900465	0	0	1.134563088	-6.556863308	92.84089661	1.0
14	-0.9119900465	0	0	1.406903625	-6.162403107	92.92158508	1.0
15	-0.9119900465	0	0	1.399247169	-6.067569733	92.82748413	1.0
16	-0.9119900465	0	0	1.418408275	-6.134509087	92.61962128	1.0
17	-0.9119900465	0	0	1.246874452	-6.131110191	92.61128235	1.0
[RightLeg]
10	0	-4.371409893	0	2.332633257	0.7036337256	91.57880402	1.0
11	0	-4.371409893	0	2.728092194	0.8698224425	91.71520996	1.0
12	0	-4.371409893	0	2.942615509	0.9492253065	91.69719696	1.0
13	0	-4.371409893	0	2.929723263	1.012935638	91.66695404	1.0
14	0	-4.371409893	0	2.939014435	1.237165213	91.6593399	1.0
15	0	-4.371409893	0	3.095428467	1.218710899	91.55279541	1.0
16	0	-4.371409893	0	3.313821554	1.106886625	91.47532654	1.0
17	0	-4.371409893	0	3.508473158	1.05986464	91.39639282	1.0
[RightFoot]
10	0	-3.918009996	0	25.82608986	66.03993988	66.92848969	1.0
11	0	-3.918009996	0	26.48762703	66.17529297	67.78517151	1.0
12	0	-3.918009996	0	27.18562698	66.34663391	68.60165405	1.0
13	0	-3.918009996	0	27.58057213	66.43177795	69.0707016	1.0
14	0	-3.918009996	0	27.41579247	66.26445007	68.85142517	1.0
15	0	-3.918009996	0	28.07708168	66.24217224	69.50429535	1.0
16	0	-3.918009996	0	28.51707268	66.11483765	70.05454254	1.0
17	0	-3.918009996	0	27.93729782	65.80252075	69.67125702	1.0
[RightToeBase]
10	0	-0.5927900076	1.367989898	0	0	0	1.0
11	0	-0.5927900076	1.367989898	0	0	0	1.0
12	0	-0.5927900076	1.367989898	0	0	0	1.0
13	0	-0.5927900076	1.367989898	0	0	0	1.0
14	0	-0.5927900076	1.367989898	0	0	0	1.0
15	0	-0.5927900076	1.367989898	0	0	0	1.0
16	0	-0.5927900076	1.367989898	0	0	0	1.0
17	0	-0.5927900076	1.367989898	0	0	0	1.0
[EndOfFile]
